# xmcd CD database file
#
# Track frame offsets:
#	150
#	43348
#	78040
#	98288
#	125344
#	151760
#
# Disc length: 2435 seconds
#
# Revision: 0
# Processed by: cddbd v1.4PL0 Copyright (c) Steve Scherf et al.
# Submitted via: CDex 1.50Beta3
#
DISCID=35098106
DTITLE=Deep Ocean - Gulfstream
DYEAR=1995
DGENRE=New Age
TTITLE0=Ocean of love
TTITLE1=Gulfstream
TTITLE2=The Fly (M.D.P.)
TTITLE3=Voice of Atlantida
TTITLE4=After the storm
TTITLE5=Back to the ocean
EXTD=YEAR: 1995
EXTT0=
EXTT1=
EXTT2=
EXTT3=
EXTT4=
EXTT5=
PLAYORDER=
